<?xml version="1.0" encoding="utf-8"?>
<!-- Generator: Adobe Illustrator 26.5.0, SVG Export Plug-In . SVG Version: 6.00 Build 0)  -->
<svg version="1.1" id="Layer_1" xmlns="http://www.w3.org/2000/svg" xmlns:xlink="http://www.w3.org/1999/xlink" x="0px" y="0px"
	 viewBox="0 0 283.46 283.46" style="enable-background:new 0 0 283.46 283.46;" xml:space="preserve">
<style type="text/css">
	.st0{fill:#FFFFFF;}
</style>
<path class="st0" d="M154.55,169.2c-0.07,1.31-0.14,2.05-0.14,2.8c-0.01,6.16-0.06,12.31,0.03,18.47c0.02,1.68-0.48,2.27-2.18,2.21
	c-3.46-0.11-6.92-0.09-10.38,0c-1.55,0.04-1.95-0.57-1.94-2.03c0.04-22.95,0.04-45.91,0-68.86c0-1.4,0.38-1.93,1.84-1.89
	c3.59,0.09,7.18,0.09,10.77,0c1.43-0.03,2,0.43,1.88,1.86c-0.09,1.04-0.02,2.1-0.02,2.95c3.16-1.66,5.91-3.66,8.99-4.61
	c15.54-4.84,32.1,3.19,35.16,21.18c1.6,9.38,0.02,18.14-6.09,25.73c-3.2,3.97-7.41,6.55-12.27,7.85c-8.13,2.16-16,1.91-23.05-3.44
	C156.39,170.83,155.7,170.18,154.55,169.2z M169.41,131.54c-9.58,0-15.55,6.05-15.52,15.72c0.03,9.75,6.15,16.12,15.49,16.11
	c9.19-0.01,15.44-6.47,15.47-15.98C184.88,138.18,178.41,131.54,169.41,131.54z"/>
<path class="st0" d="M251.69,125.59c0-1.72-0.1-3.05,0.06-4.35c0.06-0.47,0.74-1.24,1.15-1.25c4.29-0.09,8.58-0.06,13.09-0.06
	c0.05,0.72,0.13,1.33,0.13,1.94c0.01,16.99-0.02,33.97,0.04,50.96c0.01,1.63-0.5,2.08-2.07,2.03c-3.52-0.1-7.05-0.09-10.57,0
	c-1.44,0.04-1.98-0.44-1.85-1.87c0.1-1.05,0.02-2.12,0.02-3.39c-0.56,0.21-0.83,0.23-1,0.38c-8.21,7.14-17.58,7.65-27.19,4.02
	c-9.36-3.53-14.41-10.98-16.02-20.7c-1.5-9.09-0.18-17.69,5.79-25.04c4.8-5.91,11.13-9.07,18.8-9.45
	c5.14-0.26,10.14,0.16,14.62,2.98C248.28,122.8,249.72,124.08,251.69,125.59z M252.14,147.05c0.12-5.33-1.9-10.36-7.09-13.44
	c-5.48-3.24-11.34-3.16-16.84,0.04c-4.63,2.69-6.53,7.17-6.9,12.4c-0.94,13.44,11.08,20.47,22.47,15.77
	C249.82,159.33,252.12,154.01,252.14,147.05z"/>
<g>
	<g>
		<path class="st0" d="M92.31,120.46c2.66,2.44,6.2,3.89,10.22,3.91c3.81,0.02,7.26-1.35,9.93-3.65
			C105.99,118.37,98.89,118.23,92.31,120.46z"/>
		<path class="st0" d="M124.05,128.16c-3.23,3.11-7.4,5.67-11.9,7.18c3.34,2.9,5.38,7.27,5.34,12.29
			c-0.07,9.03-6.84,16.03-15.46,15.99c-8.85-0.04-15.38-6.96-15.31-16.23c0.04-5.11,2.17-9.48,5.61-12.31
			c-4.46-1.56-8.44-4.11-11.64-7.43c-7.51,7.52-10.39,18.64-6.88,28.88c4.01,11.69,15.3,19.51,28.24,19.57
			c8.47,0.27,17.45-4.06,22.85-10.04c9.2-10.19,9.47-26.28,0.41-36.58C124.91,129.01,124.48,128.59,124.05,128.16z"/>
	</g>
</g>
<path class="st0" d="M17.29,174.6c9.93-13.98,19.71-27.73,29.74-41.84c-1.21-0.1-1.94-0.2-2.67-0.21
	c-7.12-0.01-14.24-0.06-21.35,0.03c-1.71,0.02-2.23-0.53-2.16-2.21c0.12-2.95,0.05-5.9,0.03-8.85c-0.01-0.97,0.2-1.56,1.38-1.56
	c16.67,0.03,33.34,0.03,50.02,0.04c0.11,0,0.22,0.1,0.58,0.26c-9.94,13.84-19.84,27.63-30.05,41.84c1.28,0.07,2.01,0.14,2.74,0.14
	c7.5,0.01,15.01,0.04,22.51-0.03c1.5-0.01,2.06,0.44,2.02,1.95c-0.08,3.01-0.04,6.03-0.02,9.04c0.01,1.1-0.35,1.62-1.55,1.61
	c-16.74-0.03-33.47-0.02-50.21-0.03C18.09,174.81,17.9,174.74,17.29,174.6z"/>
<path class="st0" d="M131.01,126.68c-0.82-0.64-1.64-1.28-2.46-1.91c-1.65-1.27-3.35-2.58-4.98-3.94c-1.54-1.29-2.72-0.35-3.57,0.34
	c-4.26,3.43-8.67,5.5-13.5,6.34c-7.74,1.34-14.9-0.59-21.92-5.89c-0.14-0.11-0.27-0.23-0.4-0.35c-0.31-0.28-0.66-0.6-1.1-0.76
	c-0.46-0.17-0.93-0.13-1.35-0.1c-0.15,0.01-0.3,0.02-0.44,0.02h-0.75l0.15,0.73c0.03,0.18,0.05,0.38,0.07,0.58
	c0.05,0.6,0.11,1.22,0.53,1.59c1.19,1.06,2.55,2.08,4.04,3.04c5.08,3.26,10.58,5.13,15.1,5.13c0.06,0,0.13,0,0.19,0
	c7.81,0,14-2.01,20.04-6.52c1.04-0.77,1.61-0.77,2.54,0.02c1.74,1.49,3.65,2.95,5.84,4.47c0.67,0.47,2.09,0.69,2.69,0.04
	c0.35-0.38,0.51-0.78,0.48-1.2C132.16,127.59,131.54,127.09,131.01,126.68z"/>
<path class="st0" d="M94.25,110.84c0.34-0.65,0.87-1.76,1.48-2.81c0.21-0.37,0.64-0.61,0.98-0.91c2.06-1.83,2-3.95-0.17-5.62
	c-1.92-1.48-2.73-3.59-1.92-5.67c0.36-0.93,1.08-1.82,1.83-2.5c2.11-1.88,2.27-3.41,0.52-5.64c-0.25-0.31-0.15-0.9-0.2-1.35
	c0.46,0.04,1.05-0.08,1.37,0.16c1.91,1.42,2.35,4.42,0.95,6.45c-0.45,0.66-1.08,1.2-1.67,1.76c-1.82,1.71-1.77,3.89,0.21,5.41
	c1.76,1.36,2.73,3.09,2.11,5.28c-0.3,1.06-1.01,2.14-1.82,2.91c-2.19,2.07-2.38,3.37-0.58,5.74c0.24,0.31,0.1,0.9,0.14,1.36
	c-0.44-0.05-0.99,0.05-1.29-0.18C94.96,114.29,94.44,112.94,94.25,110.84z"/>
<path class="st0" d="M100.18,111.06c0.02-1.52,0.97-2.85,2.37-3.97c1.41-1.13,1.88-2.43,1.23-3.84c-0.33-0.73-0.99-1.36-1.62-1.89
	c-2.29-1.89-2.67-5.03-0.78-7.24c0.23-0.27,0.5-0.6,0.81-0.71c0.33-0.11,0.88-0.13,1.08,0.07c0.19,0.18,0.07,0.71,0.01,1.08
	c-0.03,0.17-0.25,0.31-0.38,0.47c-1.42,1.68-1.27,3.65,0.46,5c1.27,0.99,2.18,2.14,2.32,3.82c0.15,1.75-0.44,3.18-1.74,4.34
	c-2.51,2.24-2.6,3.24-0.67,5.95c0.2,0.28,0.08,0.79,0.1,1.19c-0.44,0-0.96,0.15-1.29-0.04
	C101.02,114.66,100.19,112.85,100.18,111.06z"/>
<path class="st0" d="M93.77,106.88c0.03,1.49-0.62,2.74-1.77,3.76c-2.51,2.22-2.62,3.31-0.69,5.95c0.2,0.28,0.1,0.79,0.13,1.19
	c-0.43,0-0.98,0.18-1.28-0.02c-2.34-1.52-2.6-5.15-0.57-7.28c0.28-0.29,0.6-0.55,0.91-0.81c1.94-1.65,2.09-3.47,0.42-5.35
	c-0.4-0.45-0.87-0.97-0.22-1.4c0.3-0.2,1.08-0.02,1.43,0.25C93.29,104.06,93.78,105.34,93.77,106.88z"/>
<path class="st0" d="M105.77,97.25c-0.05-1.59,0.7-2.87,1.96-3.9c2.3-1.88,2.42-3.3,0.61-5.67c-0.24-0.31-0.11-0.91-0.16-1.37
	c0.46,0.07,1.04-0.02,1.37,0.22c1.98,1.52,2.31,4.59,0.75,6.67c-0.41,0.54-0.94,1-1.44,1.47c-1.69,1.56-1.76,3.38-0.29,5.15
	c0.29,0.35,0.25,0.97,0.37,1.47c-0.53-0.08-1.22,0.01-1.58-0.29C106.24,100.07,105.75,98.79,105.77,97.25z"/>
<path class="st0" d="M117.65,106.79c0.06,1.65-0.69,2.91-1.86,3.95c-2.35,2.08-2.46,3.26-0.63,5.79c0.22,0.3,0.1,0.85,0.14,1.29
	c-0.44-0.02-0.98,0.12-1.29-0.09c-2.27-1.52-2.5-5.27-0.49-7.31c0.37-0.37,0.8-0.69,1.19-1.04c1.6-1.42,1.7-3.34,0.26-4.92
	c-0.44-0.48-1.1-0.95-0.37-1.6c0.67-0.61,1.21-0.01,1.65,0.45C117.21,104.27,117.69,105.45,117.65,106.79z"/>
<path class="st0" d="M106.45,111.01c-0.03-1.23,0.6-2.55,1.9-3.48c0.28-0.2,0.79-0.08,1.19-0.11c-0.01,0.44,0.14,0.98-0.07,1.29
	c-1.75,2.6-1.75,2.85,0.03,5.44c0.2,0.28,0.07,0.79,0.09,1.19c-0.43-0.01-0.99,0.16-1.28-0.05
	C107.03,114.34,106.45,113,106.45,111.01z"/>
<g>
	<path class="st0" d="M18.78,192.68v-10.97c0-0.51,0.07-0.93,0.22-1.26c0.15-0.33,0.35-0.6,0.59-0.8c0.25-0.2,0.52-0.34,0.82-0.42
		c0.3-0.09,0.61-0.13,0.92-0.13c0.57,0.01,1.17,0.02,1.79,0.03c0.63,0.01,1.27,0.02,1.92,0.04c0.65,0.02,1.28,0.05,1.9,0.08v0.83
		h-5.4c-0.51,0-0.91,0.14-1.22,0.43c-0.31,0.29-0.46,0.73-0.46,1.32v3.89l6.31,0.09v0.8l-6.31,0.09v5.98H18.78z"/>
	<path class="st0" d="M31.98,192.79c-0.68,0-1.28-0.07-1.8-0.21c-0.53-0.14-0.97-0.39-1.32-0.76c-0.36-0.36-0.62-0.88-0.8-1.54
		c-0.17-0.66-0.26-1.51-0.26-2.54c0-1.05,0.09-1.9,0.27-2.56c0.18-0.66,0.44-1.17,0.8-1.53c0.35-0.36,0.79-0.6,1.31-0.74
		c0.52-0.13,1.13-0.2,1.8-0.2s1.28,0.07,1.8,0.2c0.52,0.14,0.96,0.38,1.32,0.74c0.36,0.36,0.63,0.87,0.8,1.53
		c0.18,0.66,0.27,1.52,0.27,2.56c0,1.04-0.09,1.89-0.27,2.55c-0.18,0.67-0.44,1.18-0.8,1.54c-0.35,0.36-0.79,0.61-1.32,0.75
		C33.26,192.72,32.66,192.79,31.98,192.79z M31.98,191.88c0.49,0,0.94-0.05,1.33-0.14c0.39-0.09,0.72-0.28,0.98-0.56
		c0.26-0.28,0.46-0.69,0.6-1.25c0.14-0.55,0.21-1.29,0.21-2.2c0-0.93-0.07-1.66-0.21-2.21s-0.34-0.96-0.6-1.24
		c-0.26-0.28-0.59-0.46-0.98-0.55c-0.39-0.09-0.84-0.14-1.33-0.14c-0.51,0-0.95,0.05-1.33,0.14c-0.38,0.09-0.71,0.28-0.97,0.55
		c-0.27,0.28-0.47,0.69-0.6,1.24c-0.14,0.55-0.2,1.29-0.2,2.21c0,0.91,0.07,1.65,0.2,2.2c0.14,0.56,0.34,0.97,0.6,1.25
		c0.26,0.28,0.59,0.46,0.97,0.56C31.03,191.84,31.47,191.88,31.98,191.88z"/>
	<path class="st0" d="M42.06,192.79c-0.68,0-1.28-0.07-1.8-0.21c-0.53-0.14-0.97-0.39-1.32-0.76c-0.36-0.36-0.62-0.88-0.8-1.54
		c-0.17-0.66-0.26-1.51-0.26-2.54c0-1.05,0.09-1.9,0.27-2.56c0.18-0.66,0.44-1.17,0.8-1.53c0.35-0.36,0.79-0.6,1.31-0.74
		c0.52-0.13,1.13-0.2,1.8-0.2c0.68,0,1.28,0.07,1.8,0.2c0.52,0.14,0.96,0.38,1.32,0.74c0.36,0.36,0.63,0.87,0.8,1.53
		c0.18,0.66,0.27,1.52,0.27,2.56c0,1.04-0.09,1.89-0.27,2.55c-0.18,0.67-0.44,1.18-0.8,1.54c-0.35,0.36-0.79,0.61-1.32,0.75
		C43.35,192.72,42.74,192.79,42.06,192.79z M42.06,191.88c0.49,0,0.94-0.05,1.33-0.14c0.39-0.09,0.72-0.28,0.98-0.56
		c0.26-0.28,0.46-0.69,0.6-1.25c0.14-0.55,0.21-1.29,0.21-2.2c0-0.93-0.07-1.66-0.21-2.21s-0.34-0.96-0.6-1.24
		c-0.26-0.28-0.59-0.46-0.98-0.55c-0.39-0.09-0.84-0.14-1.33-0.14c-0.51,0-0.95,0.05-1.33,0.14c-0.38,0.09-0.71,0.28-0.97,0.55
		c-0.27,0.28-0.47,0.69-0.6,1.24c-0.14,0.55-0.2,1.29-0.2,2.21c0,0.91,0.07,1.65,0.2,2.2c0.14,0.56,0.34,0.97,0.6,1.25
		c0.26,0.28,0.59,0.46,0.97,0.56C41.11,191.84,41.56,191.88,42.06,191.88z"/>
	<path class="st0" d="M51.52,192.79c-0.83,0-1.5-0.18-2.03-0.54c-0.53-0.36-0.91-0.91-1.16-1.65c-0.25-0.74-0.37-1.67-0.37-2.79
		c0-1.22,0.13-2.21,0.38-2.96c0.25-0.75,0.65-1.3,1.19-1.64c0.54-0.34,1.26-0.51,2.16-0.51c0.58,0,1.15,0.06,1.71,0.19
		c0.56,0.13,1.05,0.27,1.47,0.41v-4.75h1.07v14.12h-0.85l-0.22-1.02c-0.17,0.16-0.45,0.33-0.83,0.5c-0.38,0.17-0.8,0.32-1.26,0.44
		C52.34,192.73,51.91,192.79,51.52,192.79z M51.78,191.88c0.63,0,1.2-0.1,1.71-0.3c0.51-0.2,0.98-0.4,1.4-0.61v-6.9
		c-0.51-0.15-0.98-0.27-1.42-0.37c-0.44-0.1-0.95-0.15-1.52-0.15c-0.69,0-1.25,0.13-1.67,0.39c-0.43,0.26-0.74,0.69-0.94,1.3
		c-0.2,0.61-0.3,1.45-0.3,2.52c0,0.96,0.09,1.75,0.28,2.36c0.18,0.61,0.48,1.05,0.88,1.33C50.6,191.75,51.12,191.88,51.78,191.88z"
		/>
	<path class="st0" d="M62.79,192.68V179.1h5.26c0.8,0,1.48,0.14,2.03,0.43c0.55,0.28,1,0.71,1.35,1.29
		c0.35,0.58,0.61,1.29,0.77,2.13c0.16,0.85,0.24,1.83,0.24,2.95c0,1.4-0.16,2.6-0.49,3.61c-0.33,1.01-0.81,1.8-1.46,2.35
		c-0.65,0.56-1.46,0.83-2.43,0.83H62.79z M63.86,191.72h4.11c0.79,0,1.43-0.24,1.92-0.73c0.49-0.49,0.86-1.17,1.1-2.05
		c0.24-0.88,0.36-1.89,0.36-3.05c0-1.05-0.06-1.94-0.2-2.68c-0.13-0.74-0.33-1.34-0.6-1.81c-0.27-0.46-0.62-0.8-1.05-1.02
		s-0.94-0.32-1.55-0.32h-4.11V191.72z"/>
	<path class="st0" d="M74.54,192.68v-9.86h0.8l0.28,1.78c0.47-0.54,0.99-0.99,1.56-1.35c0.57-0.36,1.24-0.53,1.99-0.53
		c0.18,0,0.36,0.01,0.52,0.03s0.31,0.05,0.44,0.08v1.09c-0.16-0.02-0.33-0.05-0.5-0.07c-0.17-0.02-0.36-0.04-0.56-0.04
		c-0.48,0-0.91,0.06-1.29,0.18c-0.38,0.12-0.74,0.3-1.08,0.55c-0.35,0.24-0.71,0.54-1.09,0.9v7.25H74.54z"/>
	<path class="st0" d="M85.32,192.79c-0.68,0-1.28-0.07-1.8-0.21c-0.53-0.14-0.97-0.39-1.32-0.76c-0.36-0.36-0.62-0.88-0.8-1.54
		c-0.17-0.66-0.26-1.51-0.26-2.54c0-1.05,0.09-1.9,0.27-2.56c0.18-0.66,0.44-1.17,0.8-1.53c0.35-0.36,0.79-0.6,1.31-0.74
		c0.52-0.13,1.13-0.2,1.8-0.2c0.68,0,1.28,0.07,1.8,0.2c0.52,0.14,0.96,0.38,1.32,0.74c0.36,0.36,0.63,0.87,0.8,1.53
		c0.18,0.66,0.27,1.52,0.27,2.56c0,1.04-0.09,1.89-0.27,2.55s-0.44,1.18-0.8,1.54c-0.35,0.36-0.79,0.61-1.32,0.75
		C86.61,192.72,86,192.79,85.32,192.79z M85.32,191.88c0.49,0,0.94-0.05,1.33-0.14c0.39-0.09,0.72-0.28,0.98-0.56
		c0.26-0.28,0.46-0.69,0.6-1.25c0.14-0.55,0.21-1.29,0.21-2.2c0-0.93-0.07-1.66-0.21-2.21s-0.34-0.96-0.6-1.24
		c-0.26-0.28-0.59-0.46-0.98-0.55c-0.39-0.09-0.84-0.14-1.33-0.14c-0.51,0-0.95,0.05-1.33,0.14c-0.38,0.09-0.71,0.28-0.97,0.55
		c-0.27,0.28-0.47,0.69-0.6,1.24c-0.14,0.55-0.2,1.29-0.2,2.21c0,0.91,0.07,1.65,0.2,2.2c0.14,0.56,0.34,0.97,0.6,1.25
		c0.26,0.28,0.59,0.46,0.97,0.56C84.37,191.84,84.82,191.88,85.32,191.88z"/>
	<path class="st0" d="M91.6,197.07v-14.25h0.83l0.24,1.04c0.21-0.15,0.5-0.31,0.88-0.5c0.38-0.18,0.78-0.34,1.22-0.46
		c0.44-0.12,0.86-0.18,1.27-0.18c0.65,0,1.2,0.14,1.66,0.42c0.45,0.29,0.82,0.67,1.1,1.15c0.28,0.48,0.49,1.02,0.61,1.61
		c0.12,0.59,0.18,1.2,0.18,1.83c0,1.12-0.13,2.06-0.4,2.82c-0.27,0.76-0.66,1.32-1.18,1.69c-0.52,0.37-1.18,0.55-1.98,0.55
		c-0.57,0-1.15-0.1-1.74-0.29c-0.59-0.19-1.14-0.43-1.63-0.73v5.29H91.6z M95.8,191.88c0.53,0,1-0.13,1.4-0.4
		c0.4-0.27,0.72-0.7,0.96-1.3s0.36-1.43,0.36-2.46c0-0.99-0.13-1.78-0.39-2.39c-0.26-0.6-0.6-1.05-1.01-1.32
		c-0.41-0.28-0.85-0.42-1.32-0.42c-0.63,0-1.2,0.1-1.72,0.3c-0.52,0.2-0.99,0.41-1.41,0.62v6.46c0.48,0.27,0.99,0.49,1.53,0.66
		C94.73,191.8,95.27,191.88,95.8,191.88z"/>
</g>
</svg>
